<?xml version="1.0" encoding="utf-8"?>
<!-- Generator: Adobe Illustrator 24.1.2, SVG Export Plug-In . SVG Version: 6.00 Build 0)  -->
<svg version="1.1" id="Layer_1" xmlns="http://www.w3.org/2000/svg" xmlns:xlink="http://www.w3.org/1999/xlink" x="0px" y="0px"
	 viewBox="0 0 175.91 170.6" style="enable-background:new 0 0 175.91 170.6;" xml:space="preserve">
<style type="text/css">
	.st0{fill:#FFFFFF;}
	.st1{fill:#D89D81;}
	.st2{fill:#71BAA6;}
	.st3{fill:#D7A47D;}
	.st4{fill:#D79088;}
	.st5{fill:#D89685;}
	.st6{fill:#9BB6BC;}
	.st7{fill:#A393B5;}
	.st8{fill:#75BFB4;}
	.st9{fill:#7BC2C2;}
	.st10{fill:#ACAAAE;}
	.st11{fill:#80C6D0;}
	.st12{fill:#80C5CA;}
	.st13{fill:#71BDAC;}
	.st14{fill:#BD9E9E;}
	.st15{fill:#85A8AA;}
	.st16{fill:#7DAEA7;}
	.st17{fill:#9E9BB4;}
	.st18{fill:#77C0BA;}
	.st19{fill:#C9A28F;}
	.st20{fill:#AF95AB;}
	.st21{fill:#969EB1;}
	.st22{fill:#CFA386;}
	.st23{fill:#8DA3AD;}
	.st24{fill:#8AC1CA;}
	.st25{fill:#B599A4;}
	.st26{fill:#C39D95;}
	.st27{fill:#A4AFB3;}
	.st28{fill:#909090;}
	.st29{fill:#707070;}
</style>
<circle class="st0" cx="87.85" cy="86.61" r="77.96"/>
<g>
	<g>
		<path class="st1" d="M23.38,133.99c-6.54-9.18-11.76-18.95-13.52-30.26c2.88-0.19,5.4-2.3,8.45-1.6
			c2.39,10.17,6.82,19.4,12.91,27.87c-3.47,0.16-4.83,2.98-6.61,5.27c-0.22-0.06-0.38-0.2-0.47-0.42
			C23.89,134.56,23.63,134.28,23.38,133.99z"/>
		<path class="st2" d="M138.88,23.28c8.7,6.72,15.9,14.68,20.63,24.71c-3.01-0.02-5.61,1.13-7.98,2.89
			c-5.43-9.22-12.88-16.64-20.97-23.47C134.27,27.9,135.19,22.8,138.88,23.28z"/>
		<path class="st3" d="M18.31,102.13c-3.05-0.71-5.57,1.41-8.45,1.6c-2.61-11.1-2.52-22.21-0.21-33.34c2.81,1.2,5.79,0.5,8.69,0.73
			c-0.55,4.26-1.1,8.52-1.64,12.79c-0.8,1.56-0.87,3.11,0.05,4.65C17.27,93.08,17.79,97.6,18.31,102.13z"/>
		<path class="st4" d="M64.7,163.35c-8.5-2.34-16.34-5.97-23.14-11.68c1.09-2.69,2.17-5.37,3.25-8.06
			c6.58,4.82,13.71,8.6,21.43,11.24C65.73,157.68,65.22,160.51,64.7,163.35z"/>
		<path class="st5" d="M44.82,143.61c-1.08,2.69-2.17,5.37-3.26,8.06c-6.95-4.12-12.58-9.61-16.95-16.4
			c1.78-2.29,3.13-5.11,6.61-5.27C35.37,134.91,39.85,139.5,44.82,143.61z"/>
		<path class="st6" d="M136.51,151.54c-5.45,4.67-11.92,7.5-18.43,10.27c-1.2-2.75-3.25-5.17-3.31-8.37
			c5.61-2.2,10.83-5.13,15.87-8.39c0.31-0.24,0.61-0.48,0.92-0.72c0.23-0.07,0.46-0.12,0.7-0.14
			C133.05,147,134.7,149.32,136.51,151.54z"/>
		<path class="st7" d="M52.8,14.06c5.38-3.03,11.19-4.84,17.23-5.98c1.61,0.16,3.27-0.17,3.57,2.4c0.27,2.29,1.35,4.49-1.71,5.65
			C66.6,18.07,61.31,20,56.03,21.93C54.95,19.3,53.87,16.68,52.8,14.06z"/>
		<path class="st8" d="M169.08,79.74c0.01,0.55,0.02,1.11,0.03,1.66c-0.02,0.8-0.04,1.6-0.06,2.39c-2.66-0.26-5.33-0.51-7.99-0.77
			c-1.23-6.37-2.45-12.74-3.68-19.12c2.79-0.52,5.58-1.04,8.36-1.56c2.08,5.42,3.31,11.02,3.32,16.85
			C169.08,79.38,169.09,79.56,169.08,79.74z"/>
		<path class="st9" d="M168.77,97.35c-0.27,6.44-2.31,12.42-4.7,18.31c-3.33,0.41-5.47-2.33-8.34-3.17
			c2.55-4.73,2.75-10.16,4.5-15.12C163.07,95.42,165.92,97.86,168.77,97.35z"/>
		<path class="st10" d="M107.72,165c-4.98,1.47-10.12,1.82-15.26,2.22c-0.75-0.21-1.5-0.43-2.26-0.64c0-2.63,0-5.25,0-7.88
			c1.21-0.96,2.46-0.45,3.7-0.09c0.86-0.21,1.73-0.43,2.59-0.64c3.21-0.53,6.42-1.06,9.63-1.59
			C106.66,159.26,107.19,162.13,107.72,165z"/>
		<path class="st11" d="M156.48,130.07c-3.12,6.08-7.65,10.98-12.87,15.29c0.98-3.6-3.59-4.96-3.33-8.26c0,0,0,0.02,0,0.02
			c0.53-0.59,1.06-1.18,1.59-1.77c2.16-2.85,4.31-5.7,6.47-8.54C151.79,126.07,153.33,130.07,156.48,130.07z"/>
		<path class="st12" d="M156.48,130.07c-3.15-0.01-4.69-4.01-8.14-3.27c2.66-4.67,5.63-9.17,7.38-14.31c2.86,0.83,5,3.57,8.34,3.17
			C162.33,120.88,160.05,125.81,156.48,130.07z"/>
		<path class="st13" d="M165.74,62.35c-2.79,0.52-5.58,1.04-8.36,1.56c-1.95-4.35-3.89-8.69-5.84-13.04
			c2.37-1.76,4.96-2.91,7.98-2.89C162.76,52.26,164.31,57.28,165.74,62.35z"/>
		<path class="st14" d="M90.2,158.71c0,2.63,0,5.25,0,7.88c-1.81,0.3-3.76-0.53-5.47,0.62c-3.49-0.51-6.97-1.02-10.46-1.53
			c-0.85-2.8,1.69-5.92-0.79-8.57c3.67,0.49,7.35,0.99,11.02,1.48c0.64,0,1.27,0,1.91-0.01C87.67,158.62,88.94,158.66,90.2,158.71z"
			/>
		<path class="st15" d="M110.2,8.74c5.03,1.21,9.97,2.66,14.28,5.68c-0.77,2.89-2.09,5.4-4.82,6.94c-3.72-1.49-7.43-2.98-11.15-4.48
			C106.73,13.68,109.73,11.47,110.2,8.74z"/>
		<path class="st16" d="M119.66,21.35c2.73-1.53,4.05-4.04,4.82-6.94c5.43,1.93,10.08,5.12,14.4,8.86
			c-3.69-0.48-4.61,4.63-8.32,4.12C126.93,25.38,123.3,23.37,119.66,21.35z"/>
		<path class="st14" d="M24,38.39c2.51-4.35,5.82-8.01,9.59-11.29c0.65,3.26,3.68,4.49,5.67,6.61c-2.92,3.45-5.84,6.9-8.76,10.35
			C29.43,40.92,26.59,39.8,24,38.39z"/>
		<path class="st17" d="M71.88,16.14c3.06-1.16,1.97-3.37,1.71-5.65c-0.3-2.57-1.96-2.24-3.57-2.4c5.28-1.65,10.63-2.72,16.2-1.98
			c0,2.74,0,5.49,0,8.23C81.44,14.94,76.66,15.54,71.88,16.14z"/>
		<path class="st18" d="M168.77,97.35c-2.85,0.51-5.7-1.93-8.55,0.02c0.28-4.78,0.56-9.56,0.84-14.35c2.66,0.26,5.33,0.51,7.99,0.77
			c0.19,0.01,0.37,0.03,0.56,0.06c0.01,1.59,0.01,3.18,0.02,4.77c-0.17,0.82-0.34,1.65-0.5,2.47
			C169,93.18,168.89,95.26,168.77,97.35z"/>
		<path class="st19" d="M12.42,59.94c1.31-4.3,2.46-8.68,5.66-12.09c2.59,0.88,5.17,1.77,7.76,2.65c-1.67,3.68-3.34,7.36-5,11.03
			C18.12,60.5,15.41,59.48,12.42,59.94z"/>
		<path class="st20" d="M52.8,14.06c1.08,2.62,2.15,5.24,3.23,7.86c-2.89,1.81-5.78,3.62-8.67,5.44c-3.45-0.71-4.06-3.96-5.66-6.32
			C44.8,17.76,48.83,15.96,52.8,14.06z"/>
		<path class="st21" d="M86.22,14.33c0-2.74,0-5.49,0-8.23c1.35-0.05,2.7-0.11,4.05-0.16c2.33,1.35,4.85,0.4,7.28,0.59
			c0.98,0.07,1.96,0.14,2.95,0.21c-2.65,1.97-2.61,5.02-3.14,7.84C93.65,14.5,89.93,14.41,86.22,14.33z"/>
		<path class="st22" d="M12.42,59.94c2.99-0.46,5.71,0.57,8.42,1.59c-0.83,3.2-1.67,6.39-2.5,9.59c-2.9-0.24-5.87,0.47-8.69-0.73
			C9.74,66.68,11.11,63.32,12.42,59.94z"/>
		<path class="st23" d="M97.36,14.58c0.53-2.82,0.49-5.87,3.14-7.84c3.36,0.03,6.59,0.74,9.7,2c-0.47,2.73-3.47,4.94-1.68,8.14
			C104.8,16.11,101.08,15.34,97.36,14.58z"/>
		<path class="st24" d="M140.28,137.1c-0.26,3.31,4.32,4.66,3.33,8.26c-1.75,2.78-4.62,4.25-7.11,6.18
			c-1.81-2.22-3.46-4.54-4.25-7.35c0,0,0.04,0.09,0.04,0.09c0.31-0.45,0.61-0.9,0.92-1.35C135.57,140.99,137.92,139.04,140.28,137.1
			z"/>
		<path class="st25" d="M41.7,21.04c1.6,2.36,2.21,5.61,5.66,6.32c-2.7,2.12-5.4,4.24-8.1,6.35c-1.98-2.12-5.01-3.35-5.67-6.61
			C36.13,24.87,38.51,22.42,41.7,21.04z"/>
		<path class="st26" d="M25.84,50.49c-2.59-0.88-5.17-1.76-7.76-2.65c0.03-0.24,0.14-0.43,0.32-0.58c0.98-0.55,0.93-1.48,0.91-2.41
			c1.56-2.15,3.13-4.31,4.69-6.46c2.59,1.4,5.42,2.52,6.49,5.66c-1.27,1.87-2.53,3.73-3.8,5.6c-0.32,0.27-0.64,0.53-0.95,0.8
			C25.74,50.46,25.84,50.49,25.84,50.49z"/>
		<path class="st27" d="M107.72,165c-0.53-2.87-1.06-5.74-1.59-8.61c2.88-0.99,5.76-1.97,8.64-2.96c0.06,3.2,2.11,5.62,3.31,8.37
			C114.63,162.88,111.17,163.94,107.72,165z"/>
		<path class="st26" d="M73.48,157.1c2.48,2.65-0.06,5.77,0.79,8.57c-3.35-0.11-6.52-0.97-9.57-2.32c0.51-2.83,1.03-5.67,1.55-8.5
			C68.66,155.6,71.07,156.35,73.48,157.1z"/>
		<path class="st28" d="M84.73,167.2c1.72-1.15,3.66-0.32,5.47-0.62c0.75,0.21,1.51,0.43,2.26,0.64
			C89.89,167.22,87.31,167.21,84.73,167.2z"/>
		<path class="st28" d="M97.55,6.53c-2.43-0.19-4.95,0.76-7.28-0.59C92.72,5.9,95.23,5.09,97.55,6.53z"/>
		<path class="st28" d="M169.12,91.1c0.17-0.82,0.34-1.65,0.5-2.47C169.87,89.53,169.94,90.4,169.12,91.1z"/>
		<path class="st19" d="M19.31,44.86c0.03,0.93,0.07,1.86-0.91,2.41C18.71,46.46,19.01,45.66,19.31,44.86z"/>
		<path class="st28" d="M169.6,83.86c-0.18-0.03-0.37-0.05-0.56-0.06c0.02-0.8,0.04-1.6,0.06-2.39
			C169.94,82.09,169.88,82.95,169.6,83.86z"/>
		<path class="st28" d="M169.08,79.74c0.01-0.18,0-0.36-0.02-0.54c0.08,0.13,0.17,0.25,0.23,0.39
			C169.29,79.61,169.15,79.69,169.08,79.74z"/>
		<path class="st5" d="M23.38,133.99c0.26,0.29,0.51,0.57,0.77,0.86C23.89,134.56,23.63,134.28,23.38,133.99z"/>
		<path class="st28" d="M16.69,83.9c0.02,1.55,0.03,3.1,0.05,4.65C15.82,87.01,15.89,85.46,16.69,83.9z"/>
		<path class="st24" d="M130.64,145.05c0.31-0.24,0.61-0.48,0.92-0.72C131.25,144.57,130.95,144.81,130.64,145.05z"/>
		<path class="st28" d="M93.91,158.62c0.68-0.97,1.65-0.75,2.59-0.64C95.63,158.19,94.77,158.4,93.91,158.62z"/>
		<path class="st6" d="M140.28,137.12c0.1-0.98,0.69-1.52,1.59-1.77C141.34,135.94,140.81,136.53,140.28,137.12z"/>
		<path class="st10" d="M84.5,158.58c0.63-0.66,1.27-0.62,1.9-0.01C85.78,158.58,85.14,158.58,84.5,158.58z"/>
		<path class="st6" d="M132.29,144.29c0.31-0.45,0.61-0.9,0.92-1.36C132.9,143.38,132.6,143.84,132.29,144.29z"/>
		<path class="st19" d="M26.69,49.66c-0.32,0.27-0.63,0.53-0.95,0.8C26.06,50.19,26.38,49.92,26.69,49.66z"/>
	</g>
</g>
<g id="SVGRepo_bgCarrier">
</g>
<g id="SVGRepo_tracerCarrier">
</g>
<g id="SVGRepo_iconCarrier">
	<g id="Complete">
		<g id="tick">
			<g>
				<path class="st29" d="M75.94,119.26c-0.97,0-1.92-0.33-2.68-0.94L47.83,98.07c-1.86-1.48-2.17-4.19-0.69-6.06
					c1.48-1.86,4.19-2.17,6.06-0.69l21.98,17.51l43.44-56.83c1.44-1.89,4.15-2.25,6.04-0.81c1.89,1.45,2.25,4.15,0.81,6.04
					l-46.11,60.33c-0.7,0.92-1.75,1.52-2.9,1.66C76.29,119.25,76.11,119.26,75.94,119.26z"/>
			</g>
		</g>
	</g>
</g>
</svg>
